<svg xmlns="http://www.w3.org/2000/svg" width="200" height="200" fill="none"><path fill="#F8F7F7" d="M200.806 109.658v-.008l-77.472-77.463-32.415 32.415 45.056 45.048-51.814 51.242 32.415 32.416 84.23-83.65Z"/><path fill="#F8F7F7" d="M110.693 122.528 65.637 77.472l45.056-45.057L78.278 0 .806 77.472l45.056 45.056L.806 167.585 33.221 200l77.472-77.472Z"/><path fill="#46BEDB" d="m168.393 128.968 19.31-19.31-64.367-64.367-19.31 19.31 64.367 64.367Z"/><path fill="#1F4899" d="m187.697 109.656-19.31-19.31-70.815 70.815 19.31 19.31 70.815-70.815Z"/><path fill="#F4AE14" d="m97.589 32.414-19.31-19.31L13.912 77.47l19.31 19.31L97.59 32.414Zm0 90.113-19.31-19.31-64.367 64.366 19.31 19.31 64.367-64.366Z"/><path fill="#DD1817" d="m33.219 58.163-19.31 19.31 64.366 64.366 19.31-19.31L33.22 58.163Z"/></svg>